# xmcd
#
# Track frame offsets: 
#        150
#        23264
#        45674
#        59696
#        74756
#        93426
#        127671
#        158437
#        176779
#        192082
#
# Disc length: 2765 seconds
#
# Revision: 0
# Processed by: cddbd v1.5.2PL0 Copyright (c) Steve Scherf et al.
# Submitted via: ExactAudioCopyFreeDBPlugin 1.0
#
DISCID=7c0acb0a
DTITLE=Solomon Burke - It Don't Get No Better Than This: Essential Rec
DTITLE=ordings
DYEAR=2009
DGENRE=Soul
TTITLE0=Love Buys Love
TTITLE1=Got to Get Myself Some Money
TTITLE2=Let It Be You and Me
TTITLE3=Love Is All That Matters
TTITLE4=Don't Tell Me What a Man Won't Do for a Woman
TTITLE5=A Change Is Gonna Come
TTITLE6=Here We Go Again
TTITLE7=It Don't Get No Better Than This
TTITLE8=When a Man Loves a Woman
TTITLE9=Proud Mary
EXTD=
EXTT0=
EXTT1=
EXTT2=
EXTT3=
EXTT4=
EXTT5=
EXTT6=
EXTT7=
EXTT8=
EXTT9=
PLAYORDER=
